<!-- icon666.com - MILLIONS vector ICONS FREE --><svg enable-background="new 0 0 512 512" viewBox="0 0 512 512" xmlns="http://www.w3.org/2000/svg"><g id="_x31_5_Trouble_Shooting"><g><path d="m357.11 479.581h-20.048c-15.158-9.399-24.395-21.297-30.425-33.576h-101.328c-5.976 12.279-15.267 24.177-30.371 33.576h-20.103c-5.324 0-9.617 4.347-9.617 9.617 0 5.379 4.292 9.671 9.617 9.671h202.275c5.379 0 9.617-4.292 9.617-9.671 0-5.27-4.238-9.617-9.617-9.617z" fill="#000000" style="fill: rgb(0, 85, 242);"></path><path d="m511.356 99.342c0-12.333-9.888-22.222-22.222-22.222h-150.864c1.301 2.893 2.503 5.836 3.493 8.882l8.908 1.024c7.16.811 13.004 5.501 15.6 11.827h122.865c.329 0 .488.162.488.491l-.048 251.387h-467.194c.048-230.016.048-251.387.048-251.387 0-.361.255-.491.488-.491h122.818c2.597-6.325 8.445-11.016 15.621-11.829l8.887-1.021c.989-3.046 2.192-5.989 3.493-8.882h-150.818c-12.279 0-22.221 9.889-22.221 22.222v.76s0 21.894-.054 272.341v38.484c0 13.329 10.768 24.139 24.098 24.145 140.573.067 373.107.068 462.478.068 13.335 0 24.091-10.811 24.091-24.145v-38.552h-.009c.054-276.743.054-271.038.054-273.102z" fill="#000000" style="fill: rgb(0, 85, 242);"></path><path d="m275.164 94.852c-5.136-5.133-11.954-7.961-19.196-7.961s-14.06 2.828-19.196 7.964c-1.245 1.238-2.34 2.581-3.305 3.998h44.962c-.951-1.407-2.021-2.757-3.265-4.001z" fill="#000000" style="fill: rgb(0, 85, 242);"></path><path d="m188.623 72.179c-4.611 7.281-7.927 15.369-9.868 23.782l-16.178 1.861c-4.287.485-7.442 4.044-7.442 8.331v15.692c0 4.287 3.154 7.846 7.442 8.331l16.178 1.86c1.941 8.412 5.258 16.502 9.868 23.781l-10.192 12.78c-2.669 3.398-2.346 8.17.647 11.163l11.162 11.162c2.993 2.993 7.766 3.316 11.163.647l12.781-10.192c7.28 4.611 15.368 7.927 23.781 9.869l1.86 16.177c.485 4.287 4.044 7.441 8.332 7.441h15.692c4.287 0 7.847-3.154 8.332-7.441l1.86-16.177c8.413-1.942 16.502-5.258 23.781-9.869l12.781 10.192c3.397 2.669 8.17 2.346 11.163-.647l11.163-11.163c2.993-2.993 3.316-7.766.647-11.163l-10.192-12.78c4.61-7.281 7.927-15.369 9.868-23.782l16.178-1.86c4.287-.485 7.442-4.045 7.442-8.332v-15.692c0-4.287-3.154-7.846-7.442-8.331l-16.178-1.861c-1.941-8.412-5.258-16.501-9.868-23.78l10.192-12.78c2.669-3.398 2.346-8.17-.647-11.163l-11.162-11.163c-2.993-2.992-7.766-3.316-11.163-.647l-12.781 10.192c-7.28-4.611-15.368-7.927-23.781-9.868l-1.86-16.178c-.485-4.287-4.044-7.442-8.332-7.441h-15.692c-4.287 0-7.847 3.154-8.332 7.441l-1.86 16.178c-8.413 1.941-16.502 5.257-23.781 9.868l-12.781-10.192c-3.397-2.669-8.17-2.346-11.163.647l-11.163 11.163c-2.993 2.992-3.316 7.765-.647 11.163zm40.468 14.991c14.86-14.86 38.896-14.86 53.756 0 14.76 14.76 14.76 38.895 0 53.656-14.86 14.86-38.896 14.861-53.756.001-14.86-14.761-14.86-38.896 0-53.657z" fill="#000000" style="fill: rgb(0, 85, 242);"></path><path d="m336.495 243.803c1.59-1.758 3.851-2.762 6.237-2.762h17.412c2.512 0 3.977-2.846 2.47-4.814-7.869-10.296-21.137-16.282-35.62-13.728-11.259 2.009-20.72 9.627-25.701 19.672l-90.412.001c-5.943-11.971-18.249-20.258-32.522-20.258-11.762 0-22.268 5.609-28.882 14.231-1.507 2.01-.084 4.898 2.427 4.898h17.371c2.386 0 4.646 1.004 6.237 2.72l8.078 8.749c3.014 3.264 3.013 8.287 0 11.552l-8.079 8.748c-1.591 1.758-3.851 2.721-6.237 2.721h-17.413c-2.511 0-3.977 2.888-2.469 4.855 7.868 10.255 21.137 16.241 35.619 13.687 11.26-1.967 20.72-9.584 25.701-19.672l90.412-.001c5.943 12.013 18.249 20.258 32.522 20.301 11.762 0 22.268-5.61 28.882-14.274 1.549-1.967.084-4.855-2.427-4.855h-17.371c-2.386 0-4.646-1.004-6.236-2.763l-8.078-8.747c-3.014-3.265-3.013-8.288.001-11.51z" fill="#000000" style="fill: rgb(0, 85, 242);"></path></g></g></svg>